<svg xmlns="http://www.w3.org/2000/svg" width="1200" height="760" viewBox="0 0 1200 760" fill="none">
  <defs>
    <linearGradient id="bgTrajCorrected" x1="90" y1="80" x2="1110" y2="700" gradientUnits="userSpaceOnUse">
      <stop stop-color="#102A1F"/>
      <stop offset="1" stop-color="#1F5137"/>
    </linearGradient>
  </defs>
  <rect x="16" y="16" width="1168" height="728" rx="28" fill="url(#bgTrajCorrected)"/>
  <rect x="90" y="100" width="1020" height="470" rx="22" fill="#143225" stroke="#A7F3D0" stroke-width="2"/>
  <path d="M190 500C350 440 470 380 610 330C740 284 860 245 1010 200" stroke="#FDE68A" stroke-width="6" stroke-linecap="round"/>
  <path d="M200 420C360 382 500 342 640 300C770 261 890 225 1030 186" stroke="#93C5FD" stroke-width="6" stroke-linecap="round"/>
  <path d="M180 580C330 520 470 465 620 410C760 360 870 310 990 260" stroke="#FCA5A5" stroke-width="6" stroke-linecap="round"/>
  <text x="90" y="650" fill="#F0FDF4" font-family="Segoe UI, Arial, sans-serif" font-size="40" font-weight="700">Tilt-Corrected Trajectories</text>
  <text x="90" y="695" fill="#C8E9D8" font-family="Segoe UI, Arial, sans-serif" font-size="24">Suggested replacement: filtered_trajectories_corrected_plot.png</text>
</svg>
