<svg xmlns="http://www.w3.org/2000/svg" width="1200" height="760" viewBox="0 0 1200 760" fill="none">
  <defs>
    <linearGradient id="bgTrajOriginal" x1="80" y1="60" x2="1120" y2="700" gradientUnits="userSpaceOnUse">
      <stop stop-color="#0B1F3A"/>
      <stop offset="1" stop-color="#1E3A5F"/>
    </linearGradient>
  </defs>
  <rect x="16" y="16" width="1168" height="728" rx="28" fill="url(#bgTrajOriginal)"/>
  <rect x="90" y="100" width="1020" height="470" rx="22" fill="#0E2748" stroke="#93C5FD" stroke-width="2"/>
  <path d="M180 180C280 260 300 300 420 360C560 430 610 400 760 500C880 570 920 540 1010 520" stroke="#FCA5A5" stroke-width="6" stroke-linecap="round"/>
  <path d="M210 230C320 290 360 330 470 420C560 500 680 510 810 470C900 440 970 400 1030 360" stroke="#86EFAC" stroke-width="6" stroke-linecap="round"/>
  <path d="M200 310C300 330 360 360 500 330C620 300 700 240 860 220C930 210 980 215 1040 250" stroke="#FDE68A" stroke-width="6" stroke-linecap="round"/>
  <text x="90" y="650" fill="#F8FAFC" font-family="Segoe UI, Arial, sans-serif" font-size="40" font-weight="700">Original Trajectories</text>
  <text x="90" y="695" fill="#C8D9F2" font-family="Segoe UI, Arial, sans-serif" font-size="24">Suggested replacement: Original_trajectories_plot.png</text>
</svg>
